<svg width="85" height="19" viewBox="0 0 85 19" fill="none" xmlns="http://www.w3.org/2000/svg">
<path d="M12.264 1.248V13.32C12.264 14.072 12.128 14.76 11.856 15.384C11.6 15.992 11.224 16.512 10.728 16.944C10.248 17.376 9.664 17.712 8.976 17.952C8.288 18.176 7.52 18.288 6.672 18.288C4.96 18.288 3.632 17.864 2.688 17.016C1.76 16.152 1.168 15.024 0.912 13.632L4.32 12.936C4.448 13.656 4.688 14.24 5.04 14.688C5.408 15.136 5.952 15.36 6.672 15.36C7.28 15.36 7.752 15.168 8.088 14.784C8.44 14.384 8.616 13.776 8.616 12.96V4.2H3.096V1.248H12.264ZM21.5906 18.288C20.6306 18.288 19.7666 18.144 18.9986 17.856C18.2306 17.552 17.5746 17.12 17.0306 16.56C16.5026 16 16.0946 15.32 15.8066 14.52C15.5186 13.72 15.3746 12.816 15.3746 11.808C15.3746 10.8 15.5186 9.896 15.8066 9.096C16.0946 8.296 16.5026 7.616 17.0306 7.056C17.5746 6.496 18.2306 6.072 18.9986 5.784C19.7666 5.48 20.6306 5.328 21.5906 5.328C22.5506 5.328 23.4146 5.48 24.1826 5.784C24.9506 6.072 25.5986 6.496 26.1266 7.056C26.6706 7.616 27.0866 8.296 27.3746 9.096C27.6626 9.896 27.8066 10.8 27.8066 11.808C27.8066 12.816 27.6626 13.72 27.3746 14.52C27.0866 15.32 26.6706 16 26.1266 16.56C25.5986 17.12 24.9506 17.552 24.1826 17.856C23.4146 18.144 22.5506 18.288 21.5906 18.288ZM21.5906 15.648C22.3906 15.648 23.0146 15.4 23.4626 14.904C23.9106 14.408 24.1346 13.704 24.1346 12.792V10.824C24.1346 9.912 23.9106 9.208 23.4626 8.712C23.0146 8.216 22.3906 7.968 21.5906 7.968C20.7906 7.968 20.1666 8.216 19.7186 8.712C19.2706 9.208 19.0466 9.912 19.0466 10.824V12.792C19.0466 13.704 19.2706 14.408 19.7186 14.904C20.1666 15.4 20.7906 15.648 21.5906 15.648ZM30.3413 18V5.616H33.8933V7.872H34.0373C34.1813 7.52 34.3573 7.192 34.5653 6.888C34.7733 6.584 35.0213 6.32 35.3093 6.096C35.6133 5.856 35.9573 5.672 36.3413 5.544C36.7413 5.4 37.1893 5.328 37.6853 5.328C38.2773 5.328 38.8213 5.432 39.3173 5.64C39.8133 5.832 40.2373 6.128 40.5893 6.528C40.9413 6.928 41.2133 7.416 41.4053 7.992C41.6133 8.568 41.7173 9.232 41.7173 9.984V18H38.1653V10.464C38.1653 8.864 37.4693 8.064 36.0773 8.064C35.8053 8.064 35.5333 8.104 35.2613 8.184C35.0053 8.248 34.7733 8.36 34.5653 8.52C34.3573 8.664 34.1893 8.848 34.0613 9.072C33.9493 9.296 33.8933 9.56 33.8933 9.864V18H30.3413ZM54.8599 18C54.1239 18 53.5319 17.816 53.0839 17.448C52.6359 17.064 52.3719 16.52 52.2919 15.816H52.1719C51.9479 16.632 51.4999 17.248 50.8279 17.664C50.1719 18.08 49.3639 18.288 48.4039 18.288C47.2039 18.288 46.2359 17.968 45.4999 17.328C44.7799 16.672 44.4199 15.76 44.4199 14.592C44.4199 13.296 44.8919 12.336 45.8359 11.712C46.7799 11.088 48.1639 10.776 49.9879 10.776H51.9799V10.152C51.9799 9.416 51.8039 8.864 51.4519 8.496C51.1159 8.112 50.5399 7.92 49.7239 7.92C48.9719 7.92 48.3639 8.064 47.8999 8.352C47.4359 8.64 47.0359 9.016 46.6999 9.48L44.7559 7.752C45.1719 7.048 45.8199 6.472 46.6999 6.024C47.5959 5.56 48.7399 5.328 50.1319 5.328C51.8279 5.328 53.1479 5.72 54.0919 6.504C55.0519 7.272 55.5319 8.44 55.5319 10.008V15.432H56.8999V18H54.8599ZM49.7479 15.96C50.3719 15.96 50.8999 15.808 51.3319 15.504C51.7639 15.2 51.9799 14.76 51.9799 14.184V12.696H50.0839C48.6279 12.696 47.8999 13.184 47.8999 14.16V14.64C47.8999 15.072 48.0679 15.4 48.4039 15.624C48.7399 15.848 49.1879 15.96 49.7479 15.96ZM65.7225 18C64.4425 18 63.4905 17.664 62.8665 16.992C62.2425 16.32 61.9305 15.464 61.9305 14.424V8.376H58.5705V5.616H60.7545C61.2825 5.616 61.6585 5.512 61.8825 5.304C62.1065 5.096 62.2185 4.712 62.2185 4.152V1.248H65.4825V5.616H70.3065V8.376H65.4825V15.24H70.3065V18H65.7225ZM73.5131 0.24H77.0651V7.872H77.2091C77.3531 7.52 77.5291 7.192 77.7371 6.888C77.9451 6.584 78.1931 6.32 78.4811 6.096C78.7851 5.856 79.1291 5.672 79.5131 5.544C79.9131 5.4 80.3611 5.328 80.8571 5.328C81.4491 5.328 81.9931 5.432 82.4891 5.64C82.9851 5.832 83.4091 6.128 83.7611 6.528C84.1131 6.928 84.3851 7.416 84.5771 7.992C84.7851 8.568 84.8891 9.232 84.8891 9.984V18H81.3371V10.464C81.3371 8.864 80.6411 8.064 79.2491 8.064C78.9771 8.064 78.7051 8.104 78.4331 8.184C78.1771 8.248 77.9451 8.36 77.7371 8.52C77.5291 8.664 77.3611 8.848 77.2331 9.072C77.1211 9.296 77.0651 9.56 77.0651 9.864V18H73.5131V0.24Z" fill="white"/>
</svg>
